<svg xmlns="http://www.w3.org/2000/svg" viewBox="0 0 88.6 85.33"><defs><style>.cls-1{fill:#e24329;}.cls-2{fill:#fc6d26;}.cls-3{fill:#fca326;}</style></defs><title>Gitlab</title><g id="Слой_2" data-name="Слой 2"><g id="final"><path class="cls-1" d="M87.12,33.77,87,33.45,75,2a3.18,3.18,0,0,0-6,.32L60.79,27.24h-33L19.68,2.32a3.19,3.19,0,0,0-6-.32L1.6,33.46l-.12.31A22.39,22.39,0,0,0,8.91,59.65l0,0,.11.08L27.4,73.51l9.1,6.88L42,84.57a3.74,3.74,0,0,0,4.51,0l5.52-4.18,9.11-6.88L79.64,59.68l0,0A22.36,22.36,0,0,0,87.12,33.77Z"/><path class="cls-2" d="M83.11,34.61,83,34.32a36.84,36.84,0,0,0-14.69,6.61l-24,18.14L59.59,70.62,76.34,58.08l0,0A20.27,20.27,0,0,0,83.11,34.61Z"/><path class="cls-3" d="M29,70.62l8.25,6.23,5,3.79a3.41,3.41,0,0,0,4.09,0l5-3.79,8.24-6.23L44.3,59.07Z"/><path class="cls-2" d="M20.3,40.93A36.81,36.81,0,0,0,5.6,34.32l-.11.29a20.3,20.3,0,0,0,6.74,23.45l0,0,.09.07L29,70.62,44.27,59.07l-24-18.14Z"/></g></g></svg>