<svg xmlns="http://www.w3.org/2000/svg" viewBox="0 0 17 17"><defs><style>.cls-1{fill:none;}</style></defs><path d="M15.86,4.91c0,.25-.1.5-.17.75A2.93,2.93,0,0,1,15,6.92C13.89,8,12.85,9.06,11.76,10.1A3.45,3.45,0,0,1,6.92,10c-.17-.19-.31-.41-.48-.63.23-.22.43-.44.67-.63a.83.83,0,0,1,1.09.1,1.71,1.71,0,0,0,1,.48,1.69,1.69,0,0,0,1.46-.5L12.54,6.9c.36-.36.74-.72,1.09-1.1a1.62,1.62,0,0,0,.43-1.69,1.63,1.63,0,0,0-1.27-1.2,1.65,1.65,0,0,0-1.59.45L9.27,5.29A.2.2,0,0,1,9,5.35a4.28,4.28,0,0,0-2-.2L7,5.1A.71.71,0,0,0,7.1,5C8,4.09,9,3.15,9.91,2.21a3.52,3.52,0,0,1,2.12-1l.07,0h.63l.09,0A3.44,3.44,0,0,1,15.74,3.7c0,.19.08.38.12.57Z"/><path d="M10,11.84l-.09.1c-1,1-1.95,2-2.94,2.93A3.44,3.44,0,0,1,2.1,10C3.14,9,4.18,7.92,5.25,6.89a3.43,3.43,0,0,1,5.25.69l.05.1c-.21.2-.41.42-.64.6a.83.83,0,0,1-1.1-.09A1.7,1.7,0,0,0,7.57,7.7a1.65,1.65,0,0,0-1.2.49l-3,3a1.73,1.73,0,0,0,2.43,2.45l1.94-1.94A.22.22,0,0,1,8,11.64a3.93,3.93,0,0,0,1.92.2Z"/></svg>